# xmcd
#
# Track frame offsets: 
#        150
#        17300
#        42842
#        73025
#        107362
#
# Disc length: 1647 seconds
#
# Revision: 0
# Processed by: cddbd v1.5.2PL0 Copyright (c) Steve Scherf et al.
# Submitted via: ExactAudioCopy v0.95b4
#
DISCID=30066d05
DTITLE=Yanou feat do - on and on
DYEAR=2002
DGENRE=
TTITLE0=Radio Edit
TTITLE1=Extended Mix
TTITLE2=DJs@work mix
TTITLE3=Flashrider Remix
TTITLE4=Piano Radio Version
EXTD=
EXTT0=
EXTT1=
EXTT2=
EXTT3=
EXTT4=
PLAYORDER=
